<?xml version="1.0" encoding="utf-8"?>
<!-- Generator: Adobe Illustrator 24.3.0, SVG Export Plug-In . SVG Version: 6.00 Build 0)  -->
<svg version="1.1" id="Layer_1" xmlns="http://www.w3.org/2000/svg" xmlns:xlink="http://www.w3.org/1999/xlink" x="0px" y="0px"
	 viewBox="0 0 300 60" style="enable-background:new 0 0 300 60;" xml:space="preserve">
<style type="text/css">
	.st0{enable-background:new    ;}
	.st1{fill:#C8112E;}
</style>
<g class="st0">
	<path class="st1" d="M8.5,52.3c-2.7-2-3.6-5-3.6-8c0-5.1,4.4-12.1,11.1-14.4c1.7-0.6,4.7-1.3,6.1-1.3c0.6,0,1.2,0.5,0.5,1
		c-6.1,4.8-9.9,11.5-9.9,16.3c0,1.1,0.2,2,0.6,2.6c4-1.5,8.8-5.4,15.5-15c12.1-17.4,16-23.2,18-27.3c0.6-1.1,1.1-1.5,2-1.1
		c1.1,0.6,1.8,1,3.1,1.9c1.8,1.5,1.3,5-0.5,8.2c-2.1,3.8-5.4,9-10.2,16.2C29.6,48.8,21.5,54,14.1,54C12,54,10.1,53.4,8.5,52.3z"/>
	<path class="st1" d="M42.9,51.2c-1.1-0.9-2-1.7-2.4-2.6c-1.3-2.5-0.3-5.5,3.6-10.6c3.6-4.8,6-8.4,6.9-10.2c0.8-1.5,1-1.6,1.8-1.4
		c1.8,0.7,3.8,1.1,4.6,1.5c1.6,0.9,1.9,2.8-0.3,5.9c-3.2,4.2-8.3,11-8.8,14.7c3.1-0.4,7.2-2.8,12.9-10.5l0.2-0.3
		c0.5-0.6,0.6-0.7,0.8-0.5l0.2,0.2c0.5,0.5,0.4,0.8,0.1,1.3l-0.2,0.3c-2.8,4.6-10.5,13.7-15.4,13.7C45.4,52.7,44,52,42.9,51.2z
		 M57.1,20.8c1.6-2,3.9-5.3,5.1-7.2c0.2-0.3,0.3-0.4,0.7-0.3c1.6,0.7,3,1.7,3.6,2.8c0.5,0.8,0.4,1.5-0.4,2.4
		c-1.5,1.6-2.7,2.7-3.3,3.1c-1.1,0.7-2.1,0.9-3.5,0.9c-0.7,0-2-0.3-2.3-0.6C56.7,21.7,56.7,21.3,57.1,20.8z"/>
	<path class="st1" d="M76.1,52.3c-0.9,0-2.2-0.9-3.3-1.9c-1.5-1.5-1.7-3-0.9-4.8c1.3-3,5.9-8.2,9.9-13.8c-3.9,2.3-10.6,8-16.8,17.6
		c-1.8,2.8-3,3-4.4,2.6c-0.7-0.3-2.3-1.3-2.8-1.6c-1-0.7-1.6-2-1.4-3.8c0.3-2.2,2.6-5.6,4.8-8.5c7.3-9.6,8.8-11.5,9.9-11.5
		c1.1,0,2.6,1.6,4.6,2.6c1.2,0.6,1.5,1.3,1.4,2.4c4-3,6.3-4.2,7.5-4.2c0.8,0,1.8,0.3,2.7,1c0.9,0.7,1.5,1.4,1.5,2.6
		c0,1.5-0.8,3.7-2,5.7c5.1-4,6.5-4.8,7.9-4.8c0.9,0,1.5,0.2,2.4,0.7c1.3,0.7,2,1.8,2,2.6c0,3-4.6,7.5-6.2,11.3
		c3.2-0.7,6.8-3.1,10.9-8.6l0.2-0.3c0.5-0.6,0.6-0.7,0.8-0.5l0.2,0.2c0.5,0.5,0.4,0.8,0.1,1.3l-0.2,0.3
		c-3.9,6.5-10.2,11.5-14.4,11.5c-3.8,0-5.7-3.8-5.4-5.7c0.2-1.5,0.9-3.2,1.9-4.9c-1.9,1.5-3.8,4.2-7.2,8.8
		C77.7,51.5,76.9,52.3,76.1,52.3z"/>
	<path class="st1" d="M126.2,54.1c4.2-6.2,9.4-14.3,14.6-22.3c-4,0.4-8.1,0.9-12.3,1.5c-3.7,5-7.4,10-10.6,13.9
		c-2.1,2.6-3,3.4-5.4,4.4c-1.5,0.7-3.9,1.6-6.9,2.5c-0.9,0.3-1.7,0.1-0.9-1.3c3.5-5.7,7.3-11.7,11.4-17.8c-0.4-0.1-0.8-0.4-1.2-0.9
		c-0.7-0.9-1-1.9-1-2.3c0-0.3,0.1-0.4,0.5-0.5l4.8-0.9c5.2-7.5,10.8-15.4,16.9-23.7c0.7-0.9,1.4-1.2,2-0.5c1.9,2.1,3.4,3.5,4,4.8
		c0.7,1.3,0.5,2.2-1.1,4.6c-2.3,3.4-5.5,7.9-8.9,12.7c4.6-0.8,8.7-1.5,12.3-2c6.2-9.6,11.6-18,13.5-20.8c0.4-0.6,0.6-0.7,1.3-0.3
		c1.1,0.7,3,2,4.4,3.2c1.1,1,1.5,2.6,0.1,4.6c-4.1,6.1-20.5,30.1-27,38.9c-0.9,1.3-1.7,2-3.4,2.4c-2.1,0.6-4,1.1-5.1,1.1
		C127.1,55.2,125.7,54.9,126.2,54.1z"/>
	<path class="st1" d="M153.7,49.2c-1.5-1.6-2.3-3.6-2.3-5.9c0-2.3,0.9-4.9,2.9-7.6c3.3-4.4,8.9-8.8,13.4-8.8c2.2,0,4.7,1.3,5.5,2.6
		c1.8,0.7,2.7,2.7,2.7,5.1c0,2.6-1.2,5.8-2.7,8.4c-3.2,5.5-8,9.1-13.1,9.1C157.4,52.1,155.5,51,153.7,49.2z M160.1,47.4
		c6.6-1.7,13.2-9.1,13.2-14.3c0-0.9-0.3-1.7-0.9-1.8c-3,1-7.1,4.7-10.3,9.7C160.6,43.3,159.7,45.5,160.1,47.4z"/>
	<path class="st1" d="M177.9,50.3c-1.5-1.1-2.2-1.9-2.2-3.4c0-2.2,1.5-4.7,4.6-8.9c4-5.4,6.8-9.7,7.7-11.4c0.2-0.4,0.5-0.5,1.3-0.5
		c1.2,0.1,2.7,0.5,3.6,0.9c0.9,0.5,1.5,1.5,0.8,4.4c3.6-3.1,6.9-5.1,10.6-7.3c1.2-0.7,1.8-1,2.1-1c0.5,0,0.7,1.1,0.7,1.7
		s-0.5,1.1-1.3,1.7c-6.2,4.5-12.5,10.5-20.1,20.9c-2.8,3.9-3.2,4.3-4.3,4.3C180.5,51.7,179.3,51.3,177.9,50.3z"/>
	<path class="st1" d="M201.4,49.9c-2.8-2.6-3.2-5.4,1.1-11.9c1.7-2.6,3.2-5,4.6-7.1c-0.9,0-1.2-0.2-1.7-0.7
		c-0.9-0.8-1.6-2.1-1.6-2.6c0-0.3,0.2-0.5,1.3-0.6c1.6-0.2,3.4-0.5,5.1-0.7c2.4-3.6,4.7-6.7,7.2-10c2-2.6,2.8-3.2,3.3-3.2
		c0.9,0,1.3,1.1,2.4,2.1c2.8,2.3,2.2,3.8-1.9,10.2c1.9-0.1,3.6-0.1,4.9-0.1c0.7,0,0.7,0.2,0.7,0.5c0,0.7-0.6,1.4-1.4,1.5
		c-0.8,0.1-0.9,0.5-3.3,1.1l-3.4,0.8c-7.3,11.2-10.2,15.8-10.6,18.2c5.1-0.3,9.3-2.9,14.1-9.4l0.2-0.3c0.5-0.6,0.6-0.7,0.8-0.5
		l0.2,0.2c0.5,0.5,0.4,0.8,0.1,1.3l-0.2,0.3c-2.3,3.8-10.8,13.1-16.8,13.1C205.1,52.1,203.2,51.7,201.4,49.9z"/>
	<path class="st1" d="M221.4,49.2c-1.5-1.6-2.3-3.6-2.3-5.9c0-2.3,0.9-4.9,2.9-7.6c3.3-4.4,8.9-8.8,13.4-8.8c2.2,0,4.7,1.3,5.5,2.6
		c1.8,0.7,2.7,2.7,2.7,5.1c0,2.6-1.2,5.8-2.7,8.4c-3.2,5.5-8,9.1-13.1,9.1C225,52.1,223.2,51,221.4,49.2z M227.7,47.4
		c6.6-1.7,13.2-9.1,13.2-14.3c0-0.9-0.3-1.7-0.9-1.8c-3,1-7.1,4.7-10.3,9.7C228.2,43.3,227.4,45.5,227.7,47.4z"/>
	<path class="st1" d="M248.7,52.1c-1.1,0-2.3-0.7-3.4-1.5c-1.2-0.9-2.1-2.2-2.1-3.8c0-1.9,2-5.2,4.8-8.8c4.2-5.5,7.2-9.6,8.1-11.2
		c0.3-0.5,0.5-0.6,0.9-0.6c1.4,0,3.8,1.1,5.4,2.7c1.1,1.1,1.6,2,1,3.5c3.5-1.8,6.4-3.1,7.9-3.1c1.1,0,2.2,0.5,3.1,1.3
		c1.5,1.4,1.6,2.6,0.5,4.8c-1.6,3.4-5.7,8.6-6.5,11.7c3.1-0.7,6.8-3.2,11.4-9.2l0.2-0.3c0.5-0.6,0.6-0.7,0.8-0.5l0.2,0.2
		c0.5,0.5,0.4,0.8,0.1,1.3l-0.2,0.3c-2.4,4-9.4,12.3-15.1,12.3c-1.6,0-3-0.8-4.2-2.2c-1.6-1.8-2.2-3.6-1.2-5.9c1.7-3.5,5-6.5,7-9.6
		c-2.7,1.8-6.3,4.8-9.8,7.7c-3.4,5-5.5,8.2-7.1,9.8C249.6,51.9,249.2,52.1,248.7,52.1z"/>
	<path class="st1" d="M274.8,53.6c-0.7-0.8-1.2-1.5-1.5-2.2c-0.3-0.6-0.1-1,0.4-1.2c6.6-2.2,9.8-5.3,9.8-7.5c0-2.4-4.3-4.4-4.3-7.9
		c0-2.8,2-5.3,5.1-7c1.6-1,3.7-1.6,4.8-1.6c1.7,0,3.2,0.7,4.7,2.9c1.6,2.5,1.5,3.3,0.7,3.6c-4.6,1.5-9.6,4.3-9.6,6.6
		c0,2,4.1,3,4.1,7.2c0,2.1-1,4.2-4,6.4c-1.5,1.1-4.1,2.2-6.5,2.2C276.8,55.2,275.8,54.6,274.8,53.6z"/>
</g>
</svg>
